<?xml version="1.0" standalone="no"?>
<!DOCTYPE svg PUBLIC "-//W3C//DTD SVG 20010904//EN"
 "http://www.w3.org/TR/2001/REC-SVG-20010904/DTD/svg10.dtd">
<svg version="1.0" xmlns="http://www.w3.org/2000/svg"
 width="225.000000pt" height="225.000000pt" viewBox="0 0 225.000000 225.000000"
 preserveAspectRatio="xMidYMid meet">

<g transform="translate(0.000000,225.000000) scale(0.100000,-0.100000)"
fill="#000000" stroke="none">
<path d="M190 1220 l0 -1030 840 0 840 0 0 1030 0 1030 -840 0 -840 0 0 -1030z
m1590 0 l0 -940 -750 0 -750 0 0 940 0 940 750 0 750 0 0 -940z"/>
<path d="M710 1848 c-73 -37 -110 -110 -110 -218 0 -59 32 -141 66 -172 87
-77 249 -57 301 37 28 50 28 54 1 64 -58 22 -68 23 -68 7 0 -9 -13 -30 -28
-47 -22 -24 -36 -31 -65 -31 -42 0 -80 21 -98 54 -7 13 -13 57 -13 99 -1 85
14 118 66 145 42 22 103 5 126 -35 15 -27 18 -27 56 -18 23 6 43 11 45 13 1 1
-7 21 -20 43 -44 79 -165 106 -259 59z"/>
<path d="M1030 1864 c0 -5 31 -94 69 -199 38 -104 73 -202 76 -217 7 -26 11
-28 60 -28 l53 0 15 43 c8 23 43 119 76 214 34 94 61 176 61 182 0 6 -19 11
-45 11 l-44 0 -52 -165 c-29 -91 -55 -162 -58 -159 -3 3 -31 76 -62 162 l-55
157 -47 3 c-26 2 -47 0 -47 -4z"/>
<path d="M470 1175 l0 -45 560 0 560 0 0 45 0 45 -560 0 -560 0 0 -45z"/>
<path d="M470 893 l0 -48 560 0 560 0 0 48 0 47 -560 0 -560 0 0 -47z"/>
<path d="M470 608 l0 -48 560 0 560 0 0 48 0 47 -560 0 -560 0 0 -47z"/>
<path d="M1970 1123 l0 -1033 -845 0 -845 0 0 -45 0 -45 890 0 890 0 0 1078 0
1077 -45 0 -45 0 0 -1032z"/>
</g>
</svg>
