<?xml version="1.0" standalone="no"?>
<!DOCTYPE svg PUBLIC "-//W3C//DTD SVG 20010904//EN"
 "http://www.w3.org/TR/2001/REC-SVG-20010904/DTD/svg10.dtd">
<svg version="1.0" xmlns="http://www.w3.org/2000/svg"
 width="355.000000pt" height="142.000000pt" viewBox="0 0 355.000000 142.000000"
 preserveAspectRatio="xMidYMid meet">

<g transform="translate(0.000000,142.000000) scale(0.100000,-0.100000)"
fill="#000000" stroke="none">
<path d="M466 1004 c-11 -30 -6 -54 12 -54 13 0 14 2 4 9 -14 8 -13 32 2 42 4
4 4 9 -2 13 -5 3 -13 -1 -16 -10z"/>
<path d="M745 635 c0 -214 1 -301 2 -192 2 109 2 285 0 390 -1 106 -2 17 -2
-198z"/>
<path d="M210 999 c0 -5 -4 -7 -10 -4 -16 10 -12 -15 5 -31 13 -14 15 -12 15
15 0 17 -2 31 -5 31 -3 0 -5 -5 -5 -11z"/>
<path d="M232 980 c0 -19 2 -27 5 -17 2 9 2 25 0 35 -3 9 -5 1 -5 -18z"/>
<path d="M290 980 c0 -22 5 -30 18 -30 13 0 14 2 4 9 -14 9 -13 32 3 43 6 4 2
8 -7 8 -13 0 -18 -8 -18 -30z"/>
<path d="M330 985 c0 -14 4 -24 9 -21 5 4 12 0 15 -6 3 -7 4 0 3 16 -3 38 -27
48 -27 11z"/>
<path d="M376 1002 c-7 -13 0 -47 10 -45 13 2 17 23 5 23 -6 0 -11 5 -11 11 0
5 5 7 12 3 7 -4 8 -3 4 4 -8 14 -13 15 -20 4z"/>
<path d="M430 1000 c0 -5 5 -10 10 -10 6 0 10 5 10 10 0 6 -4 10 -10 10 -5 0
-10 -4 -10 -10z"/>
<path d="M141 990 c-1 -23 15 -43 28 -36 6 4 11 17 10 29 -1 20 -2 20 -9 -3
l-7 -25 -11 25 c-6 14 -11 18 -11 10z"/>
<path d="M250 990 c0 -8 4 -21 9 -29 7 -11 10 -9 16 8 4 13 4 25 1 28 -3 4 -6
0 -6 -8 0 -11 -2 -11 -10 1 -9 13 -10 13 -10 0z"/>
<path d="M412 975 c0 -16 2 -22 5 -12 2 9 2 23 0 30 -3 6 -5 -1 -5 -18z"/>
<path d="M140 915 c0 -20 4 -26 18 -23 9 2 17 12 17 23 0 11 -8 21 -17 23 -14
3 -18 -3 -18 -23z m30 0 c0 -8 -4 -15 -10 -15 -5 0 -10 7 -10 15 0 8 5 15 10
15 6 0 10 -7 10 -15z"/>
<path d="M190 925 c0 -8 4 -15 10 -15 5 0 7 7 4 15 -4 8 -8 15 -10 15 -2 0 -4
-7 -4 -15z"/>
<path d="M240 915 c0 -14 4 -25 9 -25 4 0 6 11 3 25 -2 14 -6 25 -8 25 -2 0
-4 -11 -4 -25z"/>
<path d="M268 912 c3 -17 7 -20 13 -10 13 19 11 35 -4 35 -9 0 -12 -9 -9 -25z"/>
<path d="M302 918 c3 -22 28 -38 28 -18 0 6 -4 8 -10 5 -5 -3 -10 1 -10 9 0
23 15 19 28 -6 6 -13 11 -17 11 -9 1 11 4 11 16 1 13 -11 15 -8 15 16 0 22 -3
26 -10 14 -5 -8 -10 -10 -10 -4 0 6 -14 11 -31 12 -25 1 -30 -3 -27 -20z"/>
<path d="M403 883 c-12 -2 -32 -15 -45 -27 -18 -18 -37 -24 -88 -28 -45 -3
-76 -11 -100 -27 -33 -22 -30 -23 13 -6 30 12 20 -24 -13 -43 -36 -21 -42 -35
-30 -67 l10 -25 170 0 c162 0 170 1 170 20 0 10 -6 23 -12 27 -7 4 -22 18 -32
31 -19 22 -19 22 4 47 13 14 29 25 37 25 21 0 15 23 -12 53 -26 27 -30 28 -72
20z m-143 -168 c0 -8 6 -16 13 -18 6 -3 -13 -6 -44 -6 -39 -1 -60 4 -69 14
-10 12 -9 15 6 15 11 1 30 7 44 15 26 14 50 5 50 -20z m68 3 c4 -31 0 -33 -29
-18 -28 15 -25 52 4 48 16 -2 23 -11 25 -30z m107 -3 l30 -25 -45 0 c-58 0
-79 12 -61 34 19 22 41 19 76 -9z"/>
<path d="M2714 778 l-29 -33 33 29 c30 28 37 36 29 36 -2 0 -16 -15 -33 -32z"/>
<path d="M2947 799 c7 -7 15 -10 18 -7 3 3 -2 9 -12 12 -14 6 -15 5 -6 -5z"/>
<path d="M100 790 c0 -5 5 -10 11 -10 5 0 7 5 4 10 -3 6 -8 10 -11 10 -2 0 -4
-4 -4 -10z"/>
<path d="M2760 705 c-13 -14 -22 -27 -19 -29 2 -2 14 10 27 25 29 36 24 38 -8
4z"/>
<path d="M2911 704 c13 -17 26 -30 28 -27 3 2 -8 16 -24 31 l-28 27 24 -31z"/>
<path d="M2823 692 c-6 -4 -13 -23 -15 -42 -3 -39 -19 -43 -30 -8 -6 20 -7 19
-5 -7 2 -36 35 -48 44 -16 3 11 9 18 14 15 5 -3 6 -16 3 -30 -7 -27 19 -45 39
-25 8 8 7 11 -6 11 -12 0 -17 8 -16 28 2 24 2 24 6 4 7 -36 47 -26 50 12 2 28
1 28 -38 23 -39 -5 -64 8 -35 19 9 3 16 10 16 15 0 11 -11 11 -27 1z"/>
<path d="M964 640 c1 -41 3 -45 26 -45 23 0 25 4 26 45 l2 45 -7 -40 c-4 -26
-11 -40 -21 -40 -10 0 -17 14 -21 40 l-7 40 2 -45z"/>
<path d="M1468 668 c-7 -23 6 -71 22 -76 13 -4 13 -3 2 11 -8 9 -11 24 -8 34
7 22 -9 53 -16 31z"/>
<path d="M1624 666 c-18 -46 22 -94 53 -63 10 9 12 17 6 17 -7 0 -15 -5 -18
-10 -11 -18 -25 0 -25 32 0 27 2 30 26 24 17 -5 23 -3 19 4 -9 15 -55 12 -61
-4z"/>
<path d="M1711 638 c-1 -27 3 -48 7 -48 4 0 6 17 4 38 -5 58 -10 62 -11 10z"/>
<path d="M1940 671 c0 -5 -9 -11 -21 -14 -16 -4 -20 -12 -17 -34 2 -22 9 -29
31 -31 26 -3 27 -2 27 42 0 25 -4 46 -10 46 -5 0 -10 -4 -10 -9z m0 -52 c0
-20 -15 -26 -25 -9 -9 15 3 43 15 35 5 -3 10 -15 10 -26z"/>
<path d="M2090 634 c0 -44 1 -45 28 -42 24 3 27 7 29 46 3 41 2 42 -27 42 -29
0 -30 -2 -30 -46z m41 21 c-1 -15 -24 -12 -29 3 -3 9 2 13 12 10 10 -1 17 -7
17 -13z m7 -37 c-3 -7 -11 -13 -18 -13 -7 0 -15 6 -17 13 -3 7 4 12 17 12 13
0 20 -5 18 -12z"/>
<path d="M2560 671 c0 -5 -9 -11 -21 -14 -30 -8 -23 -61 9 -65 20 -3 22 1 22
42 0 25 -2 46 -5 46 -3 0 -5 -4 -5 -9z m-4 -57 c-5 -13 -10 -14 -18 -6 -6 6
-8 18 -4 28 5 13 10 14 18 6 6 -6 8 -18 4 -28z"/>
<path d="M3092 638 c-2 -46 -1 -48 26 -47 22 1 23 2 5 6 -18 3 -23 13 -26 46
l-4 42 -1 -47z"/>
<path d="M3410 670 c0 -5 4 -10 9 -10 6 0 12 -17 14 -37 3 -35 4 -34 5 10 2
36 -2 47 -13 47 -8 0 -15 -4 -15 -10z"/>
<path d="M1051 623 c1 -36 2 -37 8 -8 3 17 11 30 16 30 5 0 13 -13 17 -30 6
-29 6 -29 5 5 -2 28 -6 36 -24 38 -21 3 -23 -1 -22 -35z"/>
<path d="M1133 625 c0 -22 2 -30 4 -17 2 12 2 30 0 40 -3 9 -5 -1 -4 -23z"/>
<path d="M1161 653 c-1 -6 4 -24 10 -40 l11 -28 13 25 c8 14 14 32 14 40 0 9
-5 6 -13 -8 l-12 -23 -12 23 c-6 13 -11 18 -11 11z"/>
<path d="M1231 642 c-13 -23 8 -58 30 -49 10 4 9 6 -3 6 -25 1 -22 21 3 21 14
0 19 5 17 17 -5 25 -35 28 -47 5z m34 -2 c3 -5 -1 -10 -9 -10 -9 0 -16 5 -16
10 0 6 4 10 9 10 6 0 13 -4 16 -10z"/>
<path d="M1300 625 c0 -19 5 -35 10 -35 6 0 10 13 10 29 0 20 6 31 18 34 10 3
6 5 -10 6 -25 1 -28 -2 -28 -34z"/>
<path d="M1365 650 c-8 -14 3 -30 21 -30 8 0 14 -5 14 -11 0 -6 -9 -9 -20 -6
-11 3 -20 1 -20 -5 0 -5 10 -8 22 -6 26 3 38 38 14 38 -22 0 -20 17 2 23 13 4
12 5 -5 6 -12 0 -25 -3 -28 -9z"/>
<path d="M1433 625 c0 -22 2 -30 4 -17 2 12 2 30 0 40 -3 9 -5 -1 -4 -23z"/>
<path d="M1520 645 c-16 -19 -3 -49 21 -51 9 -1 10 0 2 3 -21 7 -15 23 8 23
14 0 19 5 17 17 -4 24 -32 28 -48 8z m35 -5 c3 -5 -1 -10 -9 -10 -9 0 -16 5
-16 10 0 6 4 10 9 10 6 0 13 -4 16 -10z"/>
<path d="M1775 646 c20 -15 20 -15 -2 -16 -16 0 -23 -6 -23 -20 0 -15 7 -20
26 -20 23 0 25 3 22 32 -2 24 -9 34 -23 36 l-20 4 20 -16z m10 -36 c-3 -5 -10
-10 -16 -10 -5 0 -9 5 -9 10 0 6 7 10 16 10 8 0 12 -4 9 -10z"/>
<path d="M1820 641 c0 -35 12 -51 36 -51 21 0 24 4 23 38 -1 35 -2 35 -8 8 -9
-41 -31 -46 -31 -7 0 17 -4 31 -10 31 -5 0 -10 -9 -10 -19z"/>
<path d="M1987 654 c-4 -4 -7 -18 -7 -31 0 -27 26 -41 43 -24 9 9 8 11 -4 6
-10 -4 -20 -2 -24 4 -3 7 3 11 15 11 15 0 20 5 18 17 -3 19 -29 29 -41 17z
m28 -14 c3 -5 -1 -10 -10 -10 -9 0 -13 5 -10 10 3 6 8 10 10 10 2 0 7 -4 10
-10z"/>
<path d="M2180 645 c-17 -21 -3 -55 23 -54 17 1 18 2 5 6 -25 6 -22 23 3 23
15 0 19 4 15 16 -3 9 -6 18 -6 20 0 10 -29 3 -40 -11z m30 -5 c0 -5 -4 -10
-10 -10 -5 0 -10 5 -10 10 0 6 5 10 10 10 6 0 10 -4 10 -10z"/>
<path d="M2251 623 c1 -37 2 -37 8 -8 4 17 12 29 19 28 7 -2 12 2 12 7 0 6 -9
10 -20 10 -17 0 -20 -6 -19 -37z"/>
<path d="M2310 625 c0 -19 5 -35 10 -35 6 0 10 14 10 30 0 17 5 30 10 30 6 0
10 -13 10 -30 0 -16 5 -30 10 -30 11 0 13 30 4 54 -3 9 -17 16 -30 16 -21 0
-24 -5 -24 -35z"/>
<path d="M2390 651 c0 -6 6 -8 14 -5 8 3 17 1 21 -5 3 -7 -2 -11 -14 -11 -14
0 -21 -6 -21 -20 0 -15 7 -20 26 -20 23 0 25 3 22 33 -2 24 -8 33 -25 35 -13
2 -23 -1 -23 -7z m35 -41 c-3 -5 -10 -10 -16 -10 -5 0 -9 5 -9 10 0 6 7 10 16
10 8 0 12 -4 9 -10z"/>
<path d="M2460 625 c0 -19 5 -35 10 -35 6 0 10 13 10 29 0 20 6 31 18 34 10 3
6 5 -10 6 -25 1 -28 -2 -28 -34z"/>
<path d="M2732 635 c0 -16 2 -22 5 -12 2 9 2 23 0 30 -3 6 -5 -1 -5 -18z"/>
<path d="M2942 635 c0 -16 2 -22 5 -12 2 9 2 23 0 30 -3 6 -5 -1 -5 -18z"/>
<path d="M3150 651 c0 -5 5 -22 10 -37 8 -21 8 -29 -2 -36 -11 -6 -11 -8 0 -8
7 0 20 16 28 35 18 44 18 68 -1 35 -10 -18 -14 -20 -15 -8 0 18 -20 37 -20 19z"/>
<path d="M3224 646 c-10 -26 0 -51 21 -51 16 0 20 7 20 30 0 33 -30 49 -41 21z
m32 -32 c-5 -13 -10 -14 -18 -6 -6 6 -8 18 -4 28 5 13 10 14 18 6 6 -6 8 -18
4 -28z"/>
<path d="M3290 626 c0 -20 5 -36 10 -36 6 0 10 14 10 30 0 40 17 38 29 -2 l10
-33 -2 35 c-2 30 -6 35 -29 38 -26 3 -28 1 -28 -32z"/>
<path d="M147 633 c-20 -19 8 -23 168 -23 149 0 175 2 175 15 0 13 -25 15
-168 15 -93 0 -172 -3 -175 -7z"/>
<path d="M2740 591 c0 -6 4 -13 10 -16 6 -3 7 1 4 9 -7 18 -14 21 -14 7z"/>
<path d="M140 570 c0 -6 65 -10 175 -10 110 0 175 4 175 10 0 6 -65 10 -175
10 -110 0 -175 -4 -175 -10z"/>
<path d="M142 447 c6 -120 50 -182 145 -202 69 -14 162 35 189 102 18 42 19
186 2 181 -9 -3 -15 -34 -18 -91 -4 -74 -8 -89 -30 -112 -39 -42 -78 -58 -128
-52 -90 10 -132 69 -132 185 0 60 -3 72 -16 72 -14 0 -16 -11 -12 -83z"/>
<path d="M200 449 c0 -79 1 -82 34 -115 28 -28 42 -34 75 -34 90 0 131 51 131
164 0 52 -3 66 -15 66 -12 0 -15 -14 -15 -70 0 -82 -16 -114 -64 -130 -39 -12
-72 -3 -101 30 -15 16 -21 40 -23 96 -5 100 -22 94 -22 -7z"/>
<path d="M250 465 c0 -57 3 -69 25 -90 28 -29 51 -31 83 -9 19 13 22 24 22 90
0 43 -4 74 -10 74 -5 0 -10 -25 -10 -56 0 -63 -13 -94 -38 -94 -31 0 -42 22
-42 87 0 49 -3 63 -15 63 -12 0 -15 -14 -15 -65z"/>
<path d="M2969 513 c-13 -16 -12 -17 4 -4 16 13 21 21 13 21 -2 0 -10 -8 -17
-17z"/>
</g>
</svg>
